<svg width="30" height="26" fill="none" xmlns="http://www.w3.org/2000/svg"><path d="M9.531 17.334h15.718a.867.867 0 00.833-.63l3.467-12.133a.867.867 0 00-.834-1.104H7.532L6.912.679A.867.867 0 006.068 0h-5.2a.867.867 0 100 1.733h4.505L8.5 15.814A2.604 2.604 0 006.933 18.2c0 1.434 1.167 2.6 2.6 2.6H25.25a.867.867 0 100-1.733H9.533a.868.868 0 01-.002-1.733zM27.566 5.2l-2.971 10.4H10.228L7.918 5.2h19.648z" fill="#fff"/><path d="M8.668 23.4c0 1.434 1.166 2.6 2.6 2.6 1.434 0 2.6-1.166 2.6-2.6 0-1.434-1.166-2.6-2.6-2.6a2.603 2.603 0 00-2.6 2.6zm2.6-.867a.868.868 0 010 1.734.868.868 0 010-1.734zm9.646.867c0 1.434 1.166 2.6 2.6 2.6 1.434 0 2.6-1.166 2.6-2.6 0-1.434-1.166-2.6-2.6-2.6a2.603 2.603 0 00-2.6 2.6zm2.6-.867a.868.868 0 010 1.734.868.868 0 010-1.734z" fill="#fff"/></svg>