<svg width="23" height="23" fill="none" xmlns="http://www.w3.org/2000/svg"><path fill-rule="evenodd" clip-rule="evenodd" d="M9.769.088C7.072.54 4.91 1.696 3.046 3.682 1.598 5.224.632 7.104.168 9.282c-.226 1.056-.223 3.387.004 4.433.528 2.43 1.476 4.18 3.203 5.912 1.71 1.716 3.504 2.686 5.936 3.21 1.014.22 3.363.216 4.408-.006 2.373-.504 4.182-1.485 5.908-3.207 1.71-1.704 2.697-3.522 3.205-5.904.222-1.04.224-3.388.005-4.408-.52-2.424-1.492-4.22-3.21-5.938C17.94 1.687 16.113.687 13.807.188c-.912-.198-3.13-.253-4.038-.1zm3.966 2.129c1.77.449 3.276 1.294 4.516 2.533 1.235 1.235 2.068 2.716 2.545 4.525.193.734.224 1.039.224 2.226s-.031 1.492-.224 2.225c-.647 2.452-2.038 4.43-4.04 5.745a9.536 9.536 0 01-13.21-2.694c-.62-.928-1.024-1.848-1.344-3.05-.195-.739-.225-1.032-.223-2.226.001-1.183.033-1.495.225-2.226.477-1.809 1.31-3.29 2.545-4.525 2.348-2.348 5.838-3.332 8.986-2.533zm-1.976 2.976l-.26.259v6.049H9.366c-2.345 0-2.542.037-2.74.514-.135.327-.053.654.23.92l.221.208h5.574l.246-.246.246-.246V5.362l-.25-.215c-.355-.306-.799-.288-1.133.046z" fill="#363636"/></svg>