<svg width="20" height="32" fill="none" xmlns="http://www.w3.org/2000/svg"><path fill-rule="evenodd" clip-rule="evenodd" d="M5.79.702v.726H0v28.125h2.105V3.428H5.79V32l.181-.037c.1-.02 3.23-.556 6.958-1.192 3.727-.635 6.842-1.17 6.924-1.188L20 29.55V2.43l-.148-.032c-.082-.017-3.212-.554-6.957-1.193C9.15.567 6.019.03 5.938.01c-.148-.033-.149-.029-.149.692zm3.084 14.435c.394.338.504.95.254 1.414-.184.344-.425.514-.724.514-.497 0-.839-.432-.837-1.057.002-.844.752-1.344 1.307-.87z" fill="#fff"/></svg>