<svg width="24" height="29" fill="none" xmlns="http://www.w3.org/2000/svg"><path fill-rule="evenodd" clip-rule="evenodd" d="M9.981.408c-.904.37-2.208 1.565-2.899 2.651-.83 1.307-1.936 1.976-3.268 1.976C.333 5.035 0 6.093 0 17.155 0 26.51.128 27.49 1.45 28.22c1.887 1.041 19.213 1.041 21.1 0 1.322-.73 1.45-1.71 1.45-11.064 0-10.966-.348-12.12-3.658-12.12-1.113 0-2.63-.906-3.787-2.262C14.335.169 12.322-.555 9.98.408zm4.269 3.466c.805 1 .495 1.161-2.25 1.161s-3.055-.16-2.25-1.16c.514-.639 1.526-1.161 2.25-1.161s1.736.522 2.25 1.16zm7.337 12.96l.21 9.09H2.25v-8.767c0-4.824.235-9.012.522-9.308.287-.296 4.59-.441 9.563-.322l9.04.216.212 9.091z" fill="#fff"/></svg>