<svg width="27" height="27" fill="none" xmlns="http://www.w3.org/2000/svg"><path fill-rule="evenodd" clip-rule="evenodd" d="M10.283.736C1.279 4.493 3.909 17.79 13.657 17.79c4.032 0 7.07-2.212 8.48-6.176C24.707 4.391 17.46-2.259 10.283.736zm7.732 3.626c2.425 2.253 2.477 6.55.111 9.04-3.733 3.93-10.979.984-10.979-4.465 0-5.361 6.896-8.265 10.868-4.575zM8.338 19.88C3.195 21.119 0 23.57 0 26.279c0 1.166 2.172.825 2.654-.416.846-2.18 5.19-3.65 10.842-3.667 5.836-.019 11.122 1.747 11.122 3.715 0 .599.536 1.089 1.19 1.089.656 0 1.192-.68 1.192-1.513 0-4.233-10.84-7.49-18.662-5.606z" fill="#fff"/></svg>