<svg width="24" height="24" fill="none" xmlns="http://www.w3.org/2000/svg"><path d="M23.928 22.275l-7.791-7.791A8.919 8.919 0 0018 9a8.946 8.946 0 00-2.637-6.363A8.933 8.933 0 009 0a8.946 8.946 0 00-6.363 2.637A8.928 8.928 0 000 9c0 2.403.939 4.665 2.637 6.363A8.928 8.928 0 009 18c2.01 0 3.918-.654 5.48-1.86l7.792 7.788a.246.246 0 00.348 0l1.308-1.305a.246.246 0 000-.348zm-10.176-8.523A6.684 6.684 0 019 15.72a6.684 6.684 0 01-4.752-1.968A6.684 6.684 0 012.28 9c0-1.794.699-3.483 1.968-4.752A6.684 6.684 0 019 2.28c1.794 0 3.483.696 4.752 1.968A6.684 6.684 0 0115.72 9a6.678 6.678 0 01-1.968 4.752z" fill="#fff"/></svg>